<?xml version="1.0" encoding="utf-8"?>
<!-- Generator: Adobe Illustrator 16.2.0, SVG Export Plug-In . SVG Version: 6.00 Build 0)  -->
<!DOCTYPE svg PUBLIC "-//W3C//DTD SVG 1.1//EN" "http://www.w3.org/Graphics/SVG/1.1/DTD/svg11.dtd">
<svg version="1.1" id="Слой_1" xmlns="http://www.w3.org/2000/svg" xmlns:xlink="http://www.w3.org/1999/xlink" x="0px" y="0px"
	 width="21.155px" height="21.154px" viewBox="0 0 21.155 21.154" enable-background="new 0 0 21.155 21.154" xml:space="preserve">
<g>
	<g>
		<g>
			<path fill="#FFFFFF" d="M6.348,16.924c-1.162,0-2.117,0.951-2.117,2.113c0,1.167,0.955,2.117,2.117,2.117s2.112-0.95,2.112-2.117
				C8.46,17.875,7.51,16.924,6.348,16.924L6.348,16.924z M0,0v2.118h2.118l3.806,8.035l-1.481,2.541
				C4.339,13.01,4.23,13.433,4.23,13.748c0,1.167,0.955,2.117,2.117,2.117h12.689v-2.117H6.771c-0.108,0-0.212-0.104-0.212-0.212
				v-0.104l0.95-1.797h7.83c0.842,0,1.477-0.424,1.797-1.059l3.807-6.874c0.212-0.212,0.212-0.32,0.212-0.533
				c0-0.629-0.424-1.052-1.06-1.052H4.442L3.492,0H0z M16.925,16.924c-1.162,0-2.117,0.951-2.117,2.113
				c0,1.167,0.955,2.117,2.117,2.117s2.112-0.95,2.112-2.117C19.037,17.875,18.087,16.924,16.925,16.924L16.925,16.924z
				 M16.925,16.924"/>
		</g>
	</g>
</g>
</svg>
