<?xml version="1.0" encoding="utf-8"?>
<!-- Generator: Adobe Illustrator 16.2.0, SVG Export Plug-In . SVG Version: 6.00 Build 0)  -->
<!DOCTYPE svg PUBLIC "-//W3C//DTD SVG 1.1//EN" "http://www.w3.org/Graphics/SVG/1.1/DTD/svg11.dtd">
<svg version="1.1" id="Слой_1" xmlns="http://www.w3.org/2000/svg" xmlns:xlink="http://www.w3.org/1999/xlink" x="0px" y="0px"
	 width="220px" height="25.781px" viewBox="0 0 220 25.781" enable-background="new 0 0 220 25.781" xml:space="preserve">
<g>
	<path fill="#FFFFFF" d="M11.004,19.513H7.913V12.14c0-2.413-0.652-3.461-2.156-3.461c-1.502,0-2.694,1.475-2.694,3.829v7.004H0
		V6.467h2.921v2.298C3.856,6.95,5.332,6.042,6.806,6.042c1.9,0,3.177,0.596,3.773,2.779h0.141c0.794-1.815,2.298-2.779,4-2.779
		c2.808,0,4.198,1.9,4.198,5.672v7.799h-3.064V12.14c0-2.383-0.681-3.461-2.183-3.461c-1.503,0-2.666,1.475-2.666,3.829V19.513z"/>
	<path fill="#FFFFFF" d="M22.746,7.941c1.502-1.275,3.205-1.9,5.048-1.9c3.488,0,5.645,1.588,5.645,5.333v8.138h-2.723l-0.085-1.673
		c-1.163,1.39-2.723,2.099-4.652,2.099c-2.637,0-4.31-1.532-4.31-3.886c0-1.729,0.879-3.006,1.984-3.659
		c0.568-0.311,1.277-0.567,2.128-0.766c1.701-0.369,2.835-0.426,4.565-0.426c0.029-1.786-1.106-2.665-2.722-2.665
		c-1.361,0-2.524,0.454-3.489,1.362L22.746,7.941z M30.347,13.245c-3.97,0-5.474,0.879-5.474,2.553c0,1.135,0.68,1.702,2.071,1.702
		c1.276,0,2.41-0.54,3.402-1.646V13.245z"/>
	<path fill="#FFFFFF" d="M40.188,19.513h-3.063V6.467h2.836v2.666c0.936-2.07,2.411-3.091,4.453-3.091
		c3.147,0,4.708,1.9,4.708,5.672v7.799h-3.092V12.14c0-2.61-0.652-3.547-2.383-3.547c-1.048,0-1.871,0.426-2.524,1.306
		c-0.624,0.851-0.936,1.871-0.936,3.034V19.513z"/>
	<path fill="#FFFFFF" d="M54.341,0c1.049,0,1.899,0.823,1.899,1.929c0,1.049-0.793,1.9-1.899,1.9s-1.9-0.851-1.9-1.9
		C52.441,0.823,53.292,0,54.341,0z M52.81,19.513V6.467h3.063v13.046H52.81z"/>
	<path fill="#FFFFFF" d="M69.288,15.685l2.042,1.701c-1.191,1.701-3.035,2.553-5.532,2.553c-2.126,0-3.8-0.624-5.048-1.873
		c-1.219-1.247-1.844-2.921-1.844-4.99c0-2.07,0.625-3.773,1.872-5.077c1.248-1.306,2.922-1.957,5.02-1.957
		c2.411,0,4.255,0.851,5.503,2.552l-2.042,1.731c-0.767-1.163-1.929-1.731-3.461-1.731c-2.353,0-3.8,1.9-3.8,4.398
		c0,2.494,1.447,4.395,3.8,4.395C67.359,17.386,68.522,16.818,69.288,15.685z"/>
	<path fill="#FFFFFF" d="M83.298,6.467h3.091v13.046h-2.835v-2.664c-0.937,2.069-2.354,3.09-4.312,3.09
		c-1.39,0-2.552-0.426-3.488-1.277c-0.908-0.85-1.362-2.324-1.362-4.395v-7.8h3.063v7.374c0,2.582,0.767,3.574,2.554,3.574
		c1.021,0,1.814-0.428,2.41-1.277c0.596-0.852,0.88-1.871,0.88-3.063V6.467z"/>
	<path fill="#FFFFFF" d="M93.139,19.513h-3.063V6.467h2.921v3.261c0.851-2.411,2.381-3.602,4.594-3.602
		c0.652,0,1.193,0.115,1.617,0.313L98.84,9.246c-0.312-0.113-0.737-0.17-1.248-0.17c-1.305,0-2.382,0.454-3.205,1.391
		c-0.822,0.908-1.248,2.042-1.248,3.375V19.513z"/>
	<path fill="#FFFFFF" d="M102.612,7.969c1.277-1.276,2.781-1.927,4.567-1.927c4.084,0,6.354,2.496,6.354,6.835v1.107h-9.701
		c0.086,2.069,1.787,3.402,3.801,3.402c1.616,0,2.894-0.567,3.857-1.701l1.815,1.73c-1.276,1.672-3.176,2.523-5.701,2.523
		c-4.424,0-6.864-2.664-6.864-6.892C100.741,10.949,101.365,9.246,102.612,7.969z M103.946,11.77h6.551
		c-0.199-2.126-1.276-3.176-3.233-3.176C105.535,8.593,104.202,9.757,103.946,11.77z"/>
	<path fill="#FFFFFF" d="M118.438,6.467v2.666c0.993-2.042,3.009-3.091,5.078-3.091c1.843,0,3.346,0.651,4.479,1.927
		c1.136,1.277,1.703,2.95,1.703,5.022c0,2.069-0.567,3.742-1.703,5.019c-1.134,1.276-2.637,1.929-4.479,1.929
		c-2.242,0-4.111-1.021-4.936-2.58v7.373h-1.589V6.467H118.438z M123.316,18.436c1.446,0,2.609-0.511,3.488-1.56
		c0.879-1.05,1.305-2.326,1.305-3.885c0-1.562-0.426-2.866-1.305-3.916s-2.042-1.56-3.488-1.56c-1.418,0-2.582,0.51-3.459,1.56
		c-0.879,1.021-1.361,2.326-1.392,3.916C118.466,16.167,120.225,18.436,123.316,18.436z"/>
	<path fill="#FFFFFF" d="M134.974,1.078v18.435h-1.589V1.078H134.974z"/>
	<path fill="#FFFFFF" d="M139.311,7.884c1.816-1.502,3.291-1.843,5.077-1.843c3.034,0,4.567,1.786,4.567,5.333v8.138h-1.476v-1.588
		c-1.161,1.332-2.721,2.014-4.708,2.014c-2.694,0-4.395-1.559-4.395-3.857c-0.113-2.213,1.502-3.459,3.146-4.027
		c0.54-0.199,1.194-0.341,1.96-0.426c0.766-0.084,1.415-0.141,1.955-0.169c0.539-0.029,1.164-0.058,1.931-0.058
		c0.111-2.297-0.712-3.942-2.95-3.942c-1.505,0-2.949,0.54-4.283,1.617L139.311,7.884z M147.368,12.763
		c-3.149,0-5.19,0.312-6.126,0.992c-0.938,0.654-1.165,1.276-1.165,2.326c0,1.475,1.104,2.469,3.036,2.469
		c1.588,0,3.006-0.71,4.255-2.156V12.763z"/>
	<path fill="#FFFFFF" d="M155.081,19.513h-1.591V6.467h1.449v2.666c0.992-2.156,2.895-3.091,4.791-3.091
		c2.413,0,4.908,1.107,4.908,5.672v7.799h-1.588V12.14c0-2.979-0.795-4.624-3.516-4.624c-1.275,0-2.328,0.51-3.178,1.503
		c-0.852,0.993-1.276,2.24-1.276,3.688V19.513z"/>
	<path fill="#FFFFFF" d="M170.764,19.513h-1.588V6.467h1.447v2.666c0.992-2.156,2.893-3.091,4.794-3.091
		c2.409,0,4.906,1.107,4.906,5.672v7.799h-1.589V12.14c0-2.979-0.796-4.624-3.517-4.624c-1.276,0-2.326,0.51-3.177,1.503
		c-0.853,0.993-1.277,2.24-1.277,3.688V19.513z"/>
	<path fill="#FFFFFF" d="M184.833,1.191c0.452-0.454,1.189-0.454,1.644,0c0.453,0.454,0.453,1.191,0,1.646
		c-0.454,0.454-1.191,0.454-1.644,0C184.378,2.383,184.378,1.646,184.833,1.191z M184.86,19.513V6.467h1.587v13.046H184.86z"/>
	<path fill="#FFFFFF" d="M192.573,19.513h-1.587V6.467h1.447v2.666c0.993-2.156,2.891-3.091,4.793-3.091
		c2.411,0,4.905,1.107,4.905,5.672v7.799h-1.587V12.14c0-2.979-0.796-4.624-3.521-4.624c-1.274,0-2.322,0.51-3.174,1.503
		c-0.853,0.993-1.277,2.24-1.277,3.688V19.513z"/>
	<path fill="#FFFFFF" d="M212.228,6.042c1.644,0,2.949,0.369,3.944,1.077c0.622-0.652,1.331-0.964,2.154-0.964
		c0.709,0,1.249,0.113,1.674,0.312c-0.145,0.368-0.511,0.992-0.654,1.333c-0.905-0.51-1.674-0.483-2.323,0.084
		c0.622,0.795,0.936,1.731,0.936,2.837c0,3.092-2.126,4.68-5.73,4.68c-1.105,0-2.04-0.143-2.836-0.454
		c-0.992,0.028-1.501,0.765-1.501,1.476c0,0.48,0.226,0.821,0.681,1.077c0.48,0.255,1.445,0.368,2.893,0.368h2.806
		c1.872,0,4.427,0.738,4.427,3.688c0,2.467-2.187,4.226-5.929,4.226H212.2c-4,0-5.757-1.815-5.757-4.226
		c0-1.163,0.65-2.213,1.447-2.666c-0.993-0.369-1.504-1.105-1.504-2.213c0-1.162,0.765-2.268,1.76-2.41
		c-1.11-0.908-1.647-2.099-1.647-3.545C206.499,7.629,208.626,6.042,212.228,6.042z M209.762,19.229
		c-1.052,0.227-1.761,1.305-1.761,2.354c0,1.702,1.421,2.75,4.143,2.75h0.509c1.219,0,2.271-0.226,3.121-0.681
		c0.879-0.453,1.304-1.162,1.304-2.127c0-1.531-1.077-2.297-3.206-2.297H209.762z M212.2,14.04c2.75,0,4.141-1.107,4.141-3.319
		c0-2.241-1.391-3.346-4.141-3.346c-2.752,0-4.142,1.105-4.142,3.346C208.059,12.933,209.448,14.04,212.2,14.04z"/>
</g>
</svg>
